<mxfile host="app.diagrams.net" modified="2022-05-07T14:21:04.980Z" agent="5.0 (Windows NT 10.0; Win64; x64) AppleWebKit/537.36 (KHTML, like Gecko) Chrome/101.0.4951.54 Safari/537.36" etag="bRSIh3affseMaBvPrSe3" version="18.0.1" type="github">
  <diagram id="C5RBs43oDa-KdzZeNtuy" name="Page-1">
    <mxGraphModel dx="1038" dy="500" grid="1" gridSize="10" guides="1" tooltips="1" connect="1" arrows="1" fold="1" page="1" pageScale="1" pageWidth="827" pageHeight="1169" math="0" shadow="0">
      <root>
        <mxCell id="WIyWlLk6GJQsqaUBKTNV-0" />
        <mxCell id="WIyWlLk6GJQsqaUBKTNV-1" parent="WIyWlLk6GJQsqaUBKTNV-0" />
        <mxCell id="TbvFw0qDgVtC9K8mfjKH-4" style="edgeStyle=orthogonalEdgeStyle;rounded=0;orthogonalLoop=1;jettySize=auto;html=1;entryX=0.5;entryY=0;entryDx=0;entryDy=0;" parent="WIyWlLk6GJQsqaUBKTNV-1" target="TbvFw0qDgVtC9K8mfjKH-3" edge="1">
          <mxGeometry relative="1" as="geometry">
            <mxPoint x="310" y="320" as="sourcePoint" />
          </mxGeometry>
        </mxCell>
        <mxCell id="TbvFw0qDgVtC9K8mfjKH-12" style="edgeStyle=orthogonalEdgeStyle;rounded=0;orthogonalLoop=1;jettySize=auto;html=1;entryX=0.5;entryY=0;entryDx=0;entryDy=0;" parent="WIyWlLk6GJQsqaUBKTNV-1" source="TbvFw0qDgVtC9K8mfjKH-3" target="TbvFw0qDgVtC9K8mfjKH-10" edge="1">
          <mxGeometry relative="1" as="geometry" />
        </mxCell>
        <mxCell id="TbvFw0qDgVtC9K8mfjKH-3" value="start_requests方法" style="rounded=0;whiteSpace=wrap;html=1;" parent="WIyWlLk6GJQsqaUBKTNV-1" vertex="1">
          <mxGeometry x="245" y="390" width="130" height="40" as="geometry" />
        </mxCell>
        <mxCell id="TbvFw0qDgVtC9K8mfjKH-9" style="edgeStyle=orthogonalEdgeStyle;rounded=0;orthogonalLoop=1;jettySize=auto;html=1;entryX=0.5;entryY=0;entryDx=0;entryDy=0;" parent="WIyWlLk6GJQsqaUBKTNV-1" source="TbvFw0qDgVtC9K8mfjKH-6" target="TbvFw0qDgVtC9K8mfjKH-8" edge="1">
          <mxGeometry relative="1" as="geometry" />
        </mxCell>
        <mxCell id="TbvFw0qDgVtC9K8mfjKH-6" value="parse方法进入页" style="rounded=0;whiteSpace=wrap;html=1;" parent="WIyWlLk6GJQsqaUBKTNV-1" vertex="1">
          <mxGeometry x="250" y="610" width="120" height="60" as="geometry" />
        </mxCell>
        <mxCell id="TbvFw0qDgVtC9K8mfjKH-18" style="edgeStyle=orthogonalEdgeStyle;rounded=0;orthogonalLoop=1;jettySize=auto;html=1;entryX=0.5;entryY=0;entryDx=0;entryDy=0;" parent="WIyWlLk6GJQsqaUBKTNV-1" source="TbvFw0qDgVtC9K8mfjKH-8" target="TbvFw0qDgVtC9K8mfjKH-17" edge="1">
          <mxGeometry relative="1" as="geometry" />
        </mxCell>
        <mxCell id="TbvFw0qDgVtC9K8mfjKH-8" value="parse_detail方法进入页中的每一项" style="rounded=0;whiteSpace=wrap;html=1;" parent="WIyWlLk6GJQsqaUBKTNV-1" vertex="1">
          <mxGeometry x="250" y="730" width="120" height="60" as="geometry" />
        </mxCell>
        <mxCell id="TbvFw0qDgVtC9K8mfjKH-11" style="edgeStyle=orthogonalEdgeStyle;rounded=0;orthogonalLoop=1;jettySize=auto;html=1;entryX=0.5;entryY=0;entryDx=0;entryDy=0;" parent="WIyWlLk6GJQsqaUBKTNV-1" source="TbvFw0qDgVtC9K8mfjKH-10" target="TbvFw0qDgVtC9K8mfjKH-6" edge="1">
          <mxGeometry relative="1" as="geometry" />
        </mxCell>
        <mxCell id="TbvFw0qDgVtC9K8mfjKH-15" style="edgeStyle=orthogonalEdgeStyle;rounded=0;orthogonalLoop=1;jettySize=auto;html=1;entryX=0;entryY=0.5;entryDx=0;entryDy=0;" parent="WIyWlLk6GJQsqaUBKTNV-1" source="TbvFw0qDgVtC9K8mfjKH-10" target="TbvFw0qDgVtC9K8mfjKH-14" edge="1">
          <mxGeometry relative="1" as="geometry" />
        </mxCell>
        <mxCell id="TbvFw0qDgVtC9K8mfjKH-10" value="是否有剩余页?" style="rhombus;whiteSpace=wrap;html=1;" parent="WIyWlLk6GJQsqaUBKTNV-1" vertex="1">
          <mxGeometry x="250" y="480" width="120" height="60" as="geometry" />
        </mxCell>
        <mxCell id="TbvFw0qDgVtC9K8mfjKH-13" value="是" style="text;html=1;align=center;verticalAlign=middle;resizable=0;points=[];autosize=1;strokeColor=none;fillColor=none;" parent="WIyWlLk6GJQsqaUBKTNV-1" vertex="1">
          <mxGeometry x="305" y="560" width="30" height="20" as="geometry" />
        </mxCell>
        <mxCell id="TbvFw0qDgVtC9K8mfjKH-14" value="结束" style="rounded=1;whiteSpace=wrap;html=1;" parent="WIyWlLk6GJQsqaUBKTNV-1" vertex="1">
          <mxGeometry x="430" y="490" width="120" height="40" as="geometry" />
        </mxCell>
        <mxCell id="TbvFw0qDgVtC9K8mfjKH-16" value="否" style="text;html=1;align=center;verticalAlign=middle;resizable=0;points=[];autosize=1;strokeColor=none;fillColor=none;" parent="WIyWlLk6GJQsqaUBKTNV-1" vertex="1">
          <mxGeometry x="375" y="490" width="30" height="20" as="geometry" />
        </mxCell>
        <mxCell id="TbvFw0qDgVtC9K8mfjKH-21" style="edgeStyle=orthogonalEdgeStyle;rounded=0;orthogonalLoop=1;jettySize=auto;html=1;entryX=0.5;entryY=0;entryDx=0;entryDy=0;" parent="WIyWlLk6GJQsqaUBKTNV-1" source="TbvFw0qDgVtC9K8mfjKH-17" target="TbvFw0qDgVtC9K8mfjKH-20" edge="1">
          <mxGeometry relative="1" as="geometry" />
        </mxCell>
        <mxCell id="TbvFw0qDgVtC9K8mfjKH-24" style="edgeStyle=orthogonalEdgeStyle;rounded=0;orthogonalLoop=1;jettySize=auto;html=1;entryX=0.5;entryY=1;entryDx=0;entryDy=0;" parent="WIyWlLk6GJQsqaUBKTNV-1" source="TbvFw0qDgVtC9K8mfjKH-17" target="TbvFw0qDgVtC9K8mfjKH-14" edge="1">
          <mxGeometry relative="1" as="geometry" />
        </mxCell>
        <mxCell id="TbvFw0qDgVtC9K8mfjKH-17" value="是否有剩余项?" style="rhombus;whiteSpace=wrap;html=1;" parent="WIyWlLk6GJQsqaUBKTNV-1" vertex="1">
          <mxGeometry x="250" y="850" width="120" height="60" as="geometry" />
        </mxCell>
        <mxCell id="TbvFw0qDgVtC9K8mfjKH-23" style="edgeStyle=orthogonalEdgeStyle;rounded=0;orthogonalLoop=1;jettySize=auto;html=1;entryX=0;entryY=0.5;entryDx=0;entryDy=0;" parent="WIyWlLk6GJQsqaUBKTNV-1" source="TbvFw0qDgVtC9K8mfjKH-20" target="TbvFw0qDgVtC9K8mfjKH-10" edge="1">
          <mxGeometry relative="1" as="geometry">
            <Array as="points">
              <mxPoint x="210" y="975" />
              <mxPoint x="210" y="510" />
            </Array>
          </mxGeometry>
        </mxCell>
        <mxCell id="TbvFw0qDgVtC9K8mfjKH-20" value="继续采集" style="rounded=0;whiteSpace=wrap;html=1;" parent="WIyWlLk6GJQsqaUBKTNV-1" vertex="1">
          <mxGeometry x="250" y="950" width="120" height="50" as="geometry" />
        </mxCell>
        <mxCell id="TbvFw0qDgVtC9K8mfjKH-22" value="是" style="text;html=1;align=center;verticalAlign=middle;resizable=0;points=[];autosize=1;strokeColor=none;fillColor=none;" parent="WIyWlLk6GJQsqaUBKTNV-1" vertex="1">
          <mxGeometry x="305" y="920" width="30" height="20" as="geometry" />
        </mxCell>
        <mxCell id="TbvFw0qDgVtC9K8mfjKH-25" value="否" style="text;html=1;align=center;verticalAlign=middle;resizable=0;points=[];autosize=1;strokeColor=none;fillColor=none;" parent="WIyWlLk6GJQsqaUBKTNV-1" vertex="1">
          <mxGeometry x="395" y="860" width="30" height="20" as="geometry" />
        </mxCell>
        <mxCell id="TbvFw0qDgVtC9K8mfjKH-26" value="开始" style="rounded=1;whiteSpace=wrap;html=1;" parent="WIyWlLk6GJQsqaUBKTNV-1" vertex="1">
          <mxGeometry x="250" y="280" width="120" height="40" as="geometry" />
        </mxCell>
      </root>
    </mxGraphModel>
  </diagram>
</mxfile>
